<svg xmlns="http://www.w3.org/2000/svg" width="54" height="72" viewBox="0 0 54 72"><defs><style>.a{fill:#f55308;}.b{fill:#f8781f;}.c{fill:#faa032;}.d{fill:#fbb45e;}</style></defs><path class="a" d="M64.567,337.733l.08.209c-.027.231-.058.462-.1.7a21.026,21.026,0,0,1-2.286,6.213,45.451,45.451,0,0,1-4.1,6.227,65.775,65.775,0,0,1-4.816,5.592s-.039.042-.034.045l-.019.033c-.655.656-1.332,1.326-2.017,1.979-.387.37-.78.737-1.171,1.1s-.788.738-1.175,1.108c-1.808,1.729-3.326,3.279-4.642,4.745a37.086,37.086,0,0,0-6.756,10.064,24.026,24.026,0,0,0-1.8,11.9,32.655,32.655,0,0,0,.961,5.376,22.362,22.362,0,0,0,1.888,4.723,18.335,18.335,0,0,0,2.948,4.029,21.729,21.729,0,0,0,4.254,3.4,31.323,31.323,0,0,0,5.7,2.707,29.057,29.057,0,0,0,3.5,1.043,28.293,28.293,0,0,0,3.691.558c.825.076,1.689.113,2.56.113a36.3,36.3,0,0,0,4.922-.358,37.768,37.768,0,0,0,7.264-1.8,36.522,36.522,0,0,0,6.482-3.013,27.443,27.443,0,0,0,5.188-3.859,18.917,18.917,0,0,0,1.853-2.054,14.257,14.257,0,0,0,1.339-2.115,11.747,11.747,0,0,0,1.267-4.244,13.39,13.39,0,0,0-.308-4.326,20.1,20.1,0,0,0-1.51-4.248,48.688,48.688,0,0,0-5.535-8.6c-1.267-1.648-2.614-3.293-3.914-4.886-.921-1.125-1.842-2.249-2.743-3.383a50.337,50.337,0,0,1-5.1-7.4,19.569,19.569,0,0,1-1.05-2.406,27.3,27.3,0,0,1-1.115-4.5c-.094-.572-.18-1.161-.261-1.753q-.133-.624-.255-1.247c-.332-1.706-.617-3.418-.98-5.118v0l0,0a33.156,33.156,0,0,0-1.08-3.944c-.237-.665-.5-1.327-.8-1.975-.11-.24-.225-.479-.346-.717a.156.156,0,0,0,.012.079" transform="translate(-35.612 -337.654)"/><path class="b" d="M59.791,366.043c-.545.839-1.031,1.7-1.487,2.572,0,0,0-.006.008-.01-1.124,2.194-2.008,4.459-2.968,6.705a37.877,37.877,0,0,1-3.276,6.3.275.275,0,0,1-.455-.049,4.126,4.126,0,0,0-.273-.646c.009.016.015.033.024.051-.39-.726-.9-1.4-1.359-2.092a9.361,9.361,0,0,1-.852-1.481,16.392,16.392,0,0,0-1.5,2.041c-.626.982-1.187,1.993-1.712,3.013.008-.016.015-.032.024-.048a87.064,87.064,0,0,0-3.518,7.965q-.7,1.775-1.361,3.562c-.094.257-.192.513-.285.769-.113.3-.23.611-.326.918a14.623,14.623,0,0,0-.49,2.019v-.006a12.951,12.951,0,0,0,0,4.215l-.012-.054A14.677,14.677,0,0,0,40.528,404a16.559,16.559,0,0,0,.906,2.118v0a17.824,17.824,0,0,0,1.336,2.163,22.174,22.174,0,0,0,1.68,2.034l-.012-.01.012.01,0,0,.009.009.012.014q.608.64,1.265,1.24a31.948,31.948,0,0,0,5.7,2.769,29.065,29.065,0,0,0,3.58,1.1,28.179,28.179,0,0,0,3.782.592c.847.076,1.726.118,2.617.118a36.208,36.208,0,0,0,5.039-.377,37.837,37.837,0,0,0,7.431-1.9,36.921,36.921,0,0,0,6.638-3.181,28.364,28.364,0,0,0,5.307-4.068,20.2,20.2,0,0,0,1.895-2.169c.071-.1.141-.193.211-.292.019-.1.036-.191.053-.287,0,.016-.008.035-.011.055a12.445,12.445,0,0,0,.163-2.035,13.628,13.628,0,0,0-.152-1.861v0a.216.216,0,0,0,0-.028l0-.014,0,.014,0-.024V400a14.412,14.412,0,0,0-.6-2.354,18.669,18.669,0,0,0-.98-2.271c.007.016.015.031.023.048a35.974,35.974,0,0,0-5.933-7.936c-3.159-3.362-6.661-6.493-9.933-9.779-1.109-1.116-2.2-2.248-3.229-3.413a41.842,41.842,0,0,1-2.8-3.5,24.112,24.112,0,0,1-2.113-3.557,16.25,16.25,0,0,1-1.147-3.217,23.342,23.342,0,0,0-1.479,2.018m-1.459,2.521a.128.128,0,0,1-.02.041c.008-.013.012-.028.02-.041" transform="translate(-36.032 -344.196)"/><path class="b" d="M44.056,415.463l0-.006h0l0,.006" transform="translate(-36.456 -349.339)"/><path class="b" d="M44.063,415.472l0-.005,0,0,.007.009" transform="translate(-36.456 -349.34)"/><path class="b" d="M44.073,415.487l0-.005-.007-.009.009.014" transform="translate(-36.457 -349.341)"/><path class="c" d="M58.937,384.468l.055-.01a5.427,5.427,0,0,0-.611.121,4.808,4.808,0,0,0-.532.181l-.012,0,.012,0,.023-.012a5.019,5.019,0,0,0-.477.237,4.942,4.942,0,0,0-.412.279,5.17,5.17,0,0,0-.809.809v0l-.013.018.013-.016a.091.091,0,0,1-.02.025l-.006.006a13.127,13.127,0,0,0-1.354,2.418,17.986,17.986,0,0,1-1.378,2.6,8.855,8.855,0,0,1-1.183,1.4,14.266,14.266,0,0,1-1.331,1.113c-.927.69-1.913,1.292-2.834,1.989l.006-.005a.056.056,0,0,1-.012.01l.005,0-.007.006h0c-.007.005-.013.012-.021.016v0l-.005,0,0,0a7.383,7.383,0,0,0-1.231,1.168,9.17,9.17,0,0,0-1.1,1.9l-.009.018-.007.014-.006.017,0-.01a10.936,10.936,0,0,0-.467,1.391,11.746,11.746,0,0,0-.271,1.381c0,.008,0,.016-.005.023v.011a15.186,15.186,0,0,0,.028,3.77v0a.062.062,0,0,1,0,.022,19.861,19.861,0,0,0,1.373,4.932c-.007-.015-.014-.032-.02-.048a20.889,20.889,0,0,0,2.646,4.575,17.789,17.789,0,0,0,1.739,1.948,19.4,19.4,0,0,0,2.1.734,19.758,19.758,0,0,0,3.116.595,20.718,20.718,0,0,0,2.153.119,24.625,24.625,0,0,0,4.143-.378,26.669,26.669,0,0,0,6.115-1.9,28.261,28.261,0,0,0,4.957-2.817l.056-.094a13.115,13.115,0,0,0,.662-1.321c-.007.015-.014.031-.02.047a11.88,11.88,0,0,0,.537-1.571,13.454,13.454,0,0,0,.32-1.615l0-.022,0,.022v.01a15.07,15.07,0,0,0,.115-1.967,18.048,18.048,0,0,0-.145-2v.007a22.14,22.14,0,0,0-1.551-5.528l.019.048a29.919,29.919,0,0,0-2.2-4.209q-1.238-1.978-2.661-3.823c-.719-.931-1.478-1.836-2.284-2.689a22.383,22.383,0,0,0-2.38-2.2s.006,0,.013.006a.221.221,0,0,1-.021-.013l.007.006-.029-.022s.007,0,.01.007l-.01-.01v0a10.738,10.738,0,0,0-2.219-1.353l.01,0a5.65,5.65,0,0,0-1.424-.4l.054.01a3.66,3.66,0,0,0-.508-.036,5.572,5.572,0,0,0-.7.055" transform="translate(-31.863 -346.235)"/><path class="c" d="M57.413,386.287Z" transform="translate(-34.077 -344.769)"/><path class="c" d="M57.4,386.293l.006-.006a.006.006,0,0,0-.006.006" transform="translate(-34.077 -344.769)"/><path class="c" d="M48.419,396.878h0l0,0,0,0" transform="translate(-34.71 -346.318)"/><path class="c" d="M45.8,400.307h0v0l0,0" transform="translate(-34.895 -346.82)"/><path class="c" d="M45.784,400.339l.006-.014a.093.093,0,0,0,.005-.017c0,.011-.008.02-.012.031" transform="translate(-34.895 -346.822)"/><path class="c" d="M45.78,400.35l0-.007h0Z" transform="translate(-34.896 -346.826)"/><path class="c" d="M44.954,403.448l0-.019v-.015c0,.012,0,.022,0,.034" transform="translate(-36.546 -347.276)"/><path class="c" d="M44.987,407.683l0-.02v0l0,.022" transform="translate(-36.549 -348.56)"/><path class="c" d="M44.987,407.686Z" transform="translate(-36.549 -348.562)"/><path class="d" d="M56.383,408.984l.055-.009a6.782,6.782,0,0,0-1.648.431.306.306,0,0,0,.039-.019,4.916,4.916,0,0,0-.994.572.392.392,0,0,0,.038-.031,4.2,4.2,0,0,0-.729.729,4.144,4.144,0,0,0-.5.868c.006-.017.016-.033.022-.049a4.593,4.593,0,0,0-.3,1.138c0,.013,0,.026-.006.038v0a6.535,6.535,0,0,0,.019,1.517v-.007a8.7,8.7,0,0,0,.608,2.156c-.007-.016-.014-.031-.02-.048a10.911,10.911,0,0,0,1.4,2.4,11.555,11.555,0,0,0,1.782,1.832q.254.037.518.067a21.57,21.57,0,0,0,2.155.119,24.891,24.891,0,0,0,4.143-.377,26.94,26.94,0,0,0,6.123-1.91q1.2-.524,2.366-1.178a20.089,20.089,0,0,0-1.177-1.711l-.005,0v0a.088.088,0,0,1-.022-.029l.006.01-.01-.016v0l0,0,0,0a18.943,18.943,0,0,0-1.538-1.739,19.44,19.44,0,0,0-1.659-1.459l-.008-.006.008.006h0a.144.144,0,0,1-.025-.02l0,.005.012.008a.028.028,0,0,1-.012-.008l-.013-.01-.005,0,0,0a18.537,18.537,0,0,0-1.743-1.171,17.608,17.608,0,0,0-1.9-.948h0a16.037,16.037,0,0,0-1.977-.682,16.97,16.97,0,0,0-2.1-.422l.054.01a13.435,13.435,0,0,0-1.732-.122,9.7,9.7,0,0,0-1.23.077m-1.593.422-.01,0,.01,0" transform="translate(-32.361 -348.684)"/><path class="d" d="M68.645,412.611h0v0Z" transform="translate(-33.287 -349.055)"/><path class="d" d="M68.647,412.614h0l0,0v0" transform="translate(-33.286 -349.055)"/><path class="d" d="M52.363,413.052c0-.009,0-.019.006-.028v-.013a.4.4,0,0,1-.006.041" transform="translate(-34.432 -349.095)"/><path class="d" d="M72.27,416.235v0l0,0,0,0" transform="translate(-33.031 -349.417)"/><path class="d" d="M72.276,416.242l0,0,0,0" transform="translate(-33.031 -349.418)"/></svg>